<svg width="111" height="19" viewBox="0 0 111 19" fill="none" xmlns="http://www.w3.org/2000/svg">
<path d="M0.0732422 5.82422H3.25293V6.89844C4.04785 6.41146 4.82129 6.07487 5.57324 5.88867C6.33236 5.69531 7.07357 5.59863 7.79688 5.59863C8.80664 5.59863 9.73405 5.75977 10.5791 6.08203C11.4242 6.4043 12.1475 6.89128 12.749 7.54297C13.2145 7.1849 13.6729 6.88411 14.124 6.64062C14.5752 6.38997 15.0264 6.18945 15.4775 6.03906C15.9287 5.88151 16.387 5.77051 16.8525 5.70605C17.318 5.63444 17.7979 5.59863 18.292 5.59863C19.3304 5.59863 20.2721 5.74186 21.1172 6.02832C21.9622 6.30762 22.682 6.72656 23.2764 7.28516C23.8779 7.84375 24.3398 8.54199 24.6621 9.37988C24.9915 10.2106 25.1562 11.1738 25.1562 12.2695V18.5H21.9873V12.7852C21.9873 12.0905 21.887 11.471 21.6865 10.9268C21.4932 10.3753 21.2174 9.91341 20.8594 9.54102C20.5085 9.16146 20.0859 8.875 19.5918 8.68164C19.1048 8.48112 18.5677 8.38086 17.9805 8.38086C17.6582 8.38086 17.3288 8.41309 16.9922 8.47754C16.6556 8.53483 16.3262 8.62793 16.0039 8.75684C15.6888 8.88574 15.3916 9.05046 15.1123 9.25098C14.833 9.44434 14.5895 9.6735 14.3818 9.93848V18.5H11.2129V12.7852C11.2129 12.0905 11.1126 11.471 10.9121 10.9268C10.7188 10.3753 10.443 9.91341 10.085 9.54102C9.73405 9.16146 9.30794 8.875 8.80664 8.68164C8.3125 8.48112 7.76823 8.38086 7.17383 8.38086C6.80859 8.38086 6.43978 8.42025 6.06738 8.49902C5.70215 8.57064 5.34766 8.67448 5.00391 8.81055C4.66732 8.94661 4.34863 9.11133 4.04785 9.30469C3.75423 9.49805 3.48926 9.71647 3.25293 9.95996V18.5H0.0732422V5.82422ZM28.4004 12.1621C28.4004 11.2526 28.583 10.4004 28.9482 9.60547C29.3206 8.81055 29.847 8.11589 30.5273 7.52148C31.2148 6.92708 32.042 6.45801 33.0088 6.11426C33.9827 5.77051 35.0749 5.59863 36.2852 5.59863C37.4954 5.59863 38.584 5.77051 39.5508 6.11426C40.5247 6.45801 41.3519 6.92708 42.0322 7.52148C42.7197 8.11589 43.2461 8.81055 43.6113 9.60547C43.9837 10.4004 44.1699 11.2526 44.1699 12.1621C44.1699 13.0716 43.9837 13.9238 43.6113 14.7188C43.2461 15.5137 42.7197 16.2083 42.0322 16.8027C41.3519 17.3971 40.5247 17.8662 39.5508 18.21C38.584 18.5537 37.4954 18.7256 36.2852 18.7256C35.0749 18.7256 33.9827 18.5537 33.0088 18.21C32.042 17.8662 31.2148 17.3971 30.5273 16.8027C29.847 16.2083 29.3206 15.5137 28.9482 14.7188C28.583 13.9238 28.4004 13.0716 28.4004 12.1621ZM31.7412 12.1621C31.7412 12.6706 31.8415 13.154 32.042 13.6123C32.2497 14.0635 32.5469 14.4645 32.9336 14.8154C33.3275 15.1592 33.8037 15.4349 34.3623 15.6426C34.9281 15.8431 35.569 15.9434 36.2852 15.9434C37.0013 15.9434 37.6387 15.8431 38.1973 15.6426C38.763 15.4349 39.2393 15.1592 39.626 14.8154C40.0199 14.4645 40.3171 14.0635 40.5176 13.6123C40.7253 13.154 40.8291 12.6706 40.8291 12.1621C40.8291 11.6536 40.7253 11.1702 40.5176 10.7119C40.3171 10.2536 40.0199 9.85254 39.626 9.50879C39.2393 9.15788 38.763 8.88216 38.1973 8.68164C37.6387 8.47396 37.0013 8.37012 36.2852 8.37012C35.569 8.37012 34.9281 8.47396 34.3623 8.68164C33.8037 8.88216 33.3275 9.15788 32.9336 9.50879C32.5469 9.85254 32.2497 10.2536 32.042 10.7119C31.8415 11.1702 31.7412 11.6536 31.7412 12.1621ZM45.6309 5.81348H49.3154L52.6133 13.4404L53.4727 15.5781L54.332 13.4404L57.6299 5.81348H61.3145L55.3096 18.5H51.6357L45.6309 5.81348ZM65.2139 4.09473C64.8988 4.09473 64.6123 4.05176 64.3545 3.96582C64.1038 3.87272 63.889 3.75098 63.71 3.60059C63.5309 3.44303 63.3913 3.264 63.291 3.06348C63.1979 2.85579 63.1514 2.63737 63.1514 2.4082C63.1514 2.17188 63.1979 1.95345 63.291 1.75293C63.3913 1.54525 63.5309 1.36621 63.71 1.21582C63.889 1.06543 64.1038 0.947266 64.3545 0.861328C64.6123 0.768229 64.8988 0.72168 65.2139 0.72168C65.5361 0.72168 65.8226 0.768229 66.0732 0.861328C66.3311 0.947266 66.5495 1.06543 66.7285 1.21582C66.9076 1.36621 67.0436 1.54525 67.1367 1.75293C67.237 1.95345 67.2871 2.17188 67.2871 2.4082C67.2871 2.63737 67.237 2.85579 67.1367 3.06348C67.0436 3.264 66.9076 3.44303 66.7285 3.60059C66.5495 3.75098 66.3311 3.87272 66.0732 3.96582C65.8226 4.05176 65.5361 4.09473 65.2139 4.09473ZM63.624 5.82422H66.8037V18.5H63.624V5.82422ZM70.2842 12.1191C70.2842 11.2598 70.4596 10.4398 70.8105 9.65918C71.1615 8.87142 71.6663 8.17676 72.3252 7.5752C72.984 6.97363 73.7897 6.49382 74.7422 6.13574C75.7018 5.77767 76.7904 5.59863 78.0078 5.59863C79.2181 5.59863 80.3066 5.78125 81.2734 6.14648C82.2474 6.50456 83.071 6.9987 83.7441 7.62891C84.4245 8.25911 84.9437 9.00033 85.3018 9.85254C85.667 10.7048 85.8496 11.6178 85.8496 12.5918C85.8496 12.7135 85.846 12.846 85.8389 12.9893C85.8389 13.1253 85.8317 13.2507 85.8174 13.3652H73.8291C73.9652 13.7448 74.1836 14.0921 74.4844 14.4072C74.7923 14.7223 75.1755 14.9945 75.6338 15.2236C76.0921 15.4528 76.6221 15.6318 77.2236 15.7607C77.8252 15.8825 78.4912 15.9434 79.2217 15.9434C79.9521 15.9434 80.679 15.8682 81.4023 15.7178C82.1257 15.5602 82.8167 15.3633 83.4756 15.127L84.5498 17.5547C84.1344 17.748 83.7119 17.9199 83.2822 18.0703C82.8597 18.2135 82.4157 18.3353 81.9502 18.4355C81.4919 18.5286 81.0085 18.6003 80.5 18.6504C79.9987 18.7005 79.4688 18.7256 78.9102 18.7256C77.485 18.7256 76.2354 18.5537 75.1611 18.21C74.0869 17.8662 73.1882 17.3971 72.4648 16.8027C71.7415 16.2083 71.1973 15.5101 70.832 14.708C70.4668 13.9059 70.2842 13.043 70.2842 12.1191ZM82.4766 10.8838C82.362 10.5329 82.1829 10.207 81.9395 9.90625C81.7031 9.59831 81.4059 9.33333 81.0479 9.11133C80.6898 8.88216 80.2744 8.70312 79.8018 8.57422C79.3291 8.44531 78.8099 8.38086 78.2441 8.38086C77.6426 8.38086 77.0947 8.44889 76.6006 8.58496C76.1064 8.72103 75.6732 8.90365 75.3008 9.13281C74.9284 9.36198 74.6169 9.62695 74.3662 9.92773C74.1227 10.2285 73.9437 10.5472 73.8291 10.8838H82.4766ZM89.7812 14.6113C90.6406 15.127 91.5859 15.5065 92.6172 15.75C93.6484 15.9935 94.7048 16.1152 95.7861 16.1152C96.5166 16.1152 97.1253 16.0651 97.6123 15.9648C98.0993 15.8646 98.4896 15.7357 98.7832 15.5781C99.0768 15.4206 99.2845 15.2415 99.4062 15.041C99.528 14.8405 99.5889 14.6364 99.5889 14.4287C99.5889 14.1279 99.4564 13.8701 99.1914 13.6553C98.9336 13.4404 98.5039 13.333 97.9023 13.333C97.623 13.333 97.3223 13.3509 97 13.3867C96.6777 13.4225 96.3376 13.4619 95.9795 13.5049C95.6286 13.5407 95.2598 13.5765 94.873 13.6123C94.4935 13.6481 94.1068 13.666 93.7129 13.666C92.8535 13.666 92.1195 13.5729 91.5107 13.3867C90.9092 13.2005 90.4186 12.9463 90.0391 12.624C89.6595 12.3018 89.3838 11.9222 89.2119 11.4854C89.04 11.0413 88.9541 10.5651 88.9541 10.0566C88.9541 9.41211 89.1045 8.81771 89.4053 8.27344C89.7061 7.72917 90.1357 7.26009 90.6943 6.86621C91.2529 6.46517 91.9261 6.15365 92.7139 5.93164C93.5088 5.70964 94.3932 5.59863 95.3672 5.59863C95.8757 5.59863 96.4056 5.63086 96.957 5.69531C97.5156 5.7526 98.0635 5.83138 98.6006 5.93164C99.1377 6.0319 99.6533 6.15007 100.147 6.28613C100.642 6.41504 101.078 6.55469 101.458 6.70508L100.459 9.17578C99.6497 8.875 98.8405 8.63867 98.0312 8.4668C97.2292 8.28776 96.402 8.19824 95.5498 8.19824C94.9554 8.19824 94.4505 8.24479 94.0352 8.33789C93.627 8.42383 93.2939 8.54199 93.0361 8.69238C92.7783 8.83561 92.5885 9.00391 92.4668 9.19727C92.3522 9.38346 92.2949 9.5804 92.2949 9.78809C92.2949 9.93848 92.3236 10.0745 92.3809 10.1963C92.4453 10.318 92.5456 10.4255 92.6816 10.5186C92.8249 10.6045 93.0075 10.6725 93.2295 10.7227C93.4587 10.7656 93.738 10.7871 94.0674 10.7871C94.3682 10.7871 94.6868 10.7692 95.0234 10.7334C95.36 10.6976 95.7109 10.6618 96.0762 10.626C96.4414 10.583 96.8174 10.5436 97.2041 10.5078C97.598 10.472 97.999 10.4541 98.4072 10.4541C99.1663 10.4541 99.8288 10.5436 100.395 10.7227C100.967 10.9017 101.44 11.1523 101.812 11.4746C102.185 11.7969 102.464 12.1764 102.65 12.6133C102.837 13.0501 102.93 13.5264 102.93 14.042C102.93 14.708 102.776 15.3275 102.468 15.9004C102.16 16.4733 101.701 16.971 101.093 17.3936C100.484 17.8089 99.7249 18.1348 98.8154 18.3711C97.9131 18.6074 96.8675 18.7256 95.6787 18.7256C94.9482 18.7256 94.2428 18.679 93.5625 18.5859C92.8822 18.5 92.234 18.3818 91.6182 18.2314C91.0023 18.0739 90.4222 17.8913 89.8779 17.6836C89.3408 17.4759 88.8503 17.2539 88.4062 17.0176L89.7812 14.6113ZM105.862 16.6416C105.862 16.3551 105.92 16.0866 106.034 15.8359C106.156 15.5781 106.328 15.3561 106.55 15.1699C106.772 14.9766 107.04 14.8262 107.355 14.7188C107.671 14.6113 108.025 14.5576 108.419 14.5576C108.813 14.5576 109.167 14.6113 109.482 14.7188C109.798 14.8262 110.062 14.9766 110.277 15.1699C110.499 15.3561 110.668 15.5781 110.782 15.8359C110.904 16.0866 110.965 16.3551 110.965 16.6416C110.965 16.9281 110.904 17.2002 110.782 17.458C110.668 17.7087 110.499 17.9271 110.277 18.1133C110.062 18.2995 109.798 18.4463 109.482 18.5537C109.167 18.6683 108.813 18.7256 108.419 18.7256C108.025 18.7256 107.671 18.6683 107.355 18.5537C107.04 18.4463 106.772 18.2995 106.55 18.1133C106.328 17.9271 106.156 17.7087 106.034 17.458C105.92 17.2002 105.862 16.9281 105.862 16.6416Z" fill="url(#paint0_linear_362_5)"/>
<defs>
<linearGradient id="paint0_linear_362_5" x1="56" y1="-3.5" x2="56" y2="24.5" gradientUnits="userSpaceOnUse">
<stop offset="0.5" stop-color="#70D1E9"/>
<stop offset="1" stop-color="#70D1E9" stop-opacity="0"/>
</linearGradient>
</defs>
</svg>
